<svg width="768" height="200" viewBox="0 0 768 200" fill="none" xmlns="http://www.w3.org/2000/svg">
<mask id="mask0" mask-type="alpha" maskUnits="userSpaceOnUse" x="0" y="0" width="768" height="200">
<rect width="768" height="200" fill="#B02318"/>
</mask>
<g mask="url(#mask0)">
<path fill-rule="evenodd" clip-rule="evenodd" d="M8571.29 8910.62C8668.39 8981.29 8629.4 8978.51 8751.04 9032.03C8751.04 9032.03 8789.04 9049.31 8789.98 9049.7C9035.26 9149.75 8884.43 9694.36 8618.15 9641.45C8608.06 9639.45 8586.37 9642.1 8521.7 9622.53C8546.58 9630.04 8457.96 9584.29 8424.98 9571.87C8364.01 9548.87 8392.01 9558.02 8360.78 9547.91L8332.96 9532.28C8252.99 9485.58 8216.13 9468.87 8158.23 9423.34C8150.01 9414.44 8133.44 9396.38 8137.83 9398.64C8127.3 9398.64 8087.42 9359.53 8044.65 9307.66C8001.87 9255.53 7958.08 9190.03 7926.76 9144.71C7879.64 9060.11 7832.73 8918.05 7806.74 8811.83C7779.48 8705.79 7751.48 8597.19 7752.89 8552.31C7750.16 8503.26 7748.93 8455.25 7749.4 8408.68C7749.74 8378.34 7750.04 8346.69 7750.42 8315.74C7750.29 8312.62 7749.61 8309.67 7749.74 8306.63C7750.8 8254.76 7751.91 8202.11 7753.27 8149.11C7753.27 8136.91 7753.27 8124.97 7753.15 8112.91C7753.79 8101.27 7754.38 8092.59 7754.85 8085.13C7756.94 8006.82 7759.11 7927.3 7761.46 7846.78C7761.33 7843.88 7761.11 7842.31 7760.99 7839.1C7761.45 7835.2 7761.67 7831.12 7762.05 7827.03C7764.91 7734.36 7767.97 7640.43 7771.21 7545.72C7769.59 7507.65 7769.34 7475.58 7768.44 7466.42C7774.32 7479.74 7772.96 7476.57 7774.83 7486.3C7775.17 7478.31 7773.77 7472.75 7774.11 7464.86C7774.11 7464.86 7789.06 7078.54 7793.58 6968.29L7793.24 6969.11L7794.05 6957.79C7807.42 6629.85 7821.91 6300.4 7836.99 5979.72C7833.63 5959.92 7833.2 5887.91 7831.67 5839.52C7859.66 5500.34 7880.49 4912.45 7898.98 4681.4C7917.43 4284.23 7982.15 3980.35 7986.92 3747.39C7987.26 3726.21 7986.92 3678.59 7979.38 3649.29C7967.32 3605.32 7971.62 3594.95 7964.76 3575.76C7971.96 3716.48 7977.5 3999.62 7957.1 4042.46C7955.69 3901.09 7955.69 3653.02 7950.71 3639.57C7962.08 3678.16 7965.19 3681.97 7966.98 3720.17C7967.41 3621.25 7962.08 3578.71 7957.01 3533.27C7965.83 3598.68 7973.16 3444.5 7971.5 3415.2C7962.34 3255.99 7928.68 3132.84 7878.92 3014.22C7827.49 2896.63 7751.74 2781.52 7614.64 2671.31C7622.69 2680.25 7625.37 2682.94 7609.57 2667.14C7611.57 2668.83 7612.98 2669.88 7614.64 2671.31C7612.59 2668.92 7609.87 2665.8 7607.35 2662.97C7548.98 2617.88 7487.72 2579.2 7425.6 2546.47C7313.12 2500.85 7214.92 2481.88 7251.9 2506.11C7065.89 2432.36 7053.96 2423.33 6892.87 2363.34C7117.74 2472.16 6915.88 2375.19 6831.99 2355.49C6808.81 2350.06 6786.19 2342.12 6764.33 2332.7C6643.2 2280.65 6568.9 2241.02 6560.08 2237.94C6651.09 2256.48 6681.12 2267.59 6694.71 2266.98C6623.18 2248.23 6541.46 2227.05 6433.72 2193.89L6433.12 2201.66L6384.25 2186.64L6397.5 2182.6C6396.82 2182.51 6396.31 2182.38 6395.71 2182.17C6321.75 2158.6 6237.18 2132.08 6144.51 2103.34C6157.55 2114.93 6205.61 2136.07 6273.56 2171.53C6257.2 2178.22 6076.98 2141.8 6002.98 2118.01C5793.75 2034.11 5669.9 2032.07 5492.74 1971.3L5632.62 2002.29C5604.71 1988.31 5316.36 1892.86 5267.62 1879.28C5288.11 1878.06 5348.57 1899.68 5361.69 1886.83C5039.77 1787.95 4809.79 1766.16 4736.46 1758.87L5238.01 1883.45C5203.07 1877.37 4881.41 1796.55 4895.89 1821.11L4441.13 1684.52C4507.63 1699.45 4537.71 1703.18 4609.84 1718.07C4413.52 1662.9 4509.17 1685.9 4380.2 1641.72C4513.6 1666.94 4711.37 1700.14 4885.2 1727.53C4765.78 1692.94 4643.03 1657.73 4517.81 1622.05C4502.86 1617.76 4487.61 1614.72 4472.27 1612.38C4330.65 1590.89 4090.36 1524.78 4090.83 1520.61C4090.83 1520.61 4122.74 1521.05 4144.77 1523.78C3796.86 1425.51 3787.01 1475.13 3436.76 1375.38L3566.66 1418.18C3482.73 1399.03 3231.15 1302.72 3261.7 1317.6C3211.42 1296.77 3167.92 1299.03 3138.23 1278.37C3133.71 1275.2 3155.4 1277.8 3175.25 1281.45L2844.85 1211C2891.63 1219.64 2872.16 1210.74 2893.12 1211C2767.95 1177.1 2675.66 1165.73 2753.89 1190.64C2514.06 1108.91 2566 1144.46 2373.13 1071.23C2382.76 1080.82 2385.23 1073.84 2441.64 1105.39C2287.83 1056.21 2157.42 1015.41 2080.35 993.231C2177.7 997.832 2127.72 1001.61 2228.1 1010.12C2167.3 995.141 1619.7 910.977 1619.7 910.977C1640.71 910.76 1700.57 911.324 1698.01 907.418C1650.42 916.663 916.466 769.3 731.604 731.97C703.783 726.284 676.984 722.247 648.737 719.426C491.653 704.06 148.64 667.556 -58.292 664.214C145.359 645.679 142.718 645.679 174.842 644.594C90.6971 644.117 -0.306305 649.325 -154.238 663.042C-221.127 668.945 -309.618 695.639 -325.211 702.194C-329.728 704.06 -300.841 698.721 -285.12 700.371C-388.522 717.516 -426.824 737.96 -468.96 753.239C-468.96 753.239 -491.669 756.712 -594.474 816.265C-623.105 832.846 -650.244 852.813 -673.975 876.122C-717.262 918.703 -767.62 976.694 -776.227 990.41C-732.471 911.585 -675.509 856.025 -603.123 808.018C-507.134 743.864 -432.618 711.873 -389.843 711.526C-404.328 710.528 -387.031 710.528 -439.819 709.616C-439.819 709.616 -398.875 680.751 -366.964 666.21C-580.33 734.444 -736.775 839.617 -793.312 970.66C-852.149 1103.48 -872.088 1230.49 -891.26 1364.4C-891.26 1364.4 -914.821 1456.2 -933.226 1549.91C-952.483 1643.41 -1013.28 1960.1 -1012.26 1979.37C-1022.1 1931.84 -1018.78 1927.11 -1023.76 1853.5C-1026.1 1864.52 -1025 2145.27 -1023.89 2169.53C-1023.89 2169.53 -1021.42 2158.29 -1007.74 2111.94L-1017.71 2263.81C-1018.27 2279.74 -1018.78 2295.37 -1019.37 2311.3C-1019.67 2412.22 -1019.67 2666.32 -1013.2 2916.47C-1018.65 2894.16 -1016.77 2884 -1023.97 2871.8C-1005.4 3106.71 -1065.43 3443.28 -1045.45 3494.81C-1044.68 3684.36 -1028.75 3574.11 -1025.64 3694.65C-1027.77 3688.88 -1032.32 3677.5 -1033.52 3712.53L-1027.77 3858.12C-1038.63 3821.44 -1029.09 3723.95 -1039.4 3885.07C-1034.33 4161 -1024.1 4322.04 -1036.88 4552.35C-1040.12 4816 -1031.43 4642.16 -1023.21 4612.47C-1023.21 4612.47 -1023.34 4622.63 -1025 4689.43C-1034.07 4744.16 -1047.92 4766.52 -1053.8 4939.49C-1032.32 5100.05 -1047.92 5031.86 -1045.92 5187.17L-1054.27 5164.03C-1056.48 5291.73 -1060.4 5319.77 -1067.6 5393.35C-1069.48 5412.79 -1070.03 5432.45 -1069.39 5451.99C-1065.3 5576.43 -1066.2 5753.7 -1065.43 5750.36C-1061.47 5733.13 -1028.06 5512.63 -1021.33 5473.08C-1040.72 5686.94 -1035.86 5835.13 -1061.85 5956.71L-1062.53 5767.16C-1095.85 6171.18 -1044.3 6151.34 -1089.46 6337.9C-1084.69 6199.35 -1097.43 6136.11 -1103.6 6114.23L-1098.4 6315.29C-1099.85 6302.87 -1101.98 6252.05 -1102.84 6254.82C-1104.16 6260.08 -1104.84 6265.24 -1104.62 6290.59C-1101.73 6347.97 -1097.21 6467.08 -1092.01 6518.95L-1093.16 6516.26L-1097.94 6849.18C-1098.19 6807.34 -1103.05 6804.61 -1104.97 6862.08C-1104.97 6862.08 -1104.07 6921.85 -1103.05 6981.62C-1102.07 7048.37 -1118.22 7114.31 -1118.22 7114.31C-1107.05 7032.23 -1118.34 7118.13 -1175.05 7222.78C-1261.07 7369.97 -1319.87 7413.94 -1362.38 7457.3C-1385.18 7477.7 -1407.63 7496.37 -1441.97 7513.9C-1459.01 7522.85 -1478.65 7532.44 -1503.58 7539.77C-1503.58 7539.77 -1511.2 7542.03 -1522.03 7544.94C-1529.23 7547.33 -1535.87 7549.76 -1543.97 7551.23C-1552.19 7552.75 -1563.91 7555.31 -1576.6 7557.83C-1652.82 7573.33 -1781.28 7598.46 -1908.92 7564.21C-1945.6 7554.4 -1989.78 7535.48 -1989.78 7535.48C-2017.56 7520.02 -2050.75 7521.46 -2059.74 7518.77C-2064.3 7517.29 -2029.54 7536.48 -2010.7 7546.98C-2079.26 7516.73 -2125.31 7500.54 -2163.74 7477.18C-2179.08 7468.94 -2189.39 7458.34 -2202.04 7453.4C-2180.02 7462.16 -2168.6 7463.77 -2168.6 7463.77C-2207.75 7427.35 -2270.04 7384.73 -2310.77 7343.36C-2350.73 7302.6 -2391.29 7253.29 -2413.02 7170.35C-2382.39 7251.08 -2326.24 7337.94 -2281.88 7362.5C-2286.66 7355.52 -2312.43 7309.16 -2316.48 7299.13C-2317.29 7297.18 -2296.71 7314.15 -2263.35 7351.39C-2263.35 7351.39 -2287.38 7321.96 -2306 7289.54C-2322.4 7257.29 -2340.98 7224.34 -2340.98 7224.34C-2350.73 7201.21 -2373.02 7181.85 -2379.28 7174.16C-2380.85 7172.12 -2375.53 7189.05 -2363.47 7217.83C-2414.04 7139.05 -2437.77 7010.65 -2451.07 6999.63C-2437.39 7006.44 -2439.35 6932.96 -2450.26 6823.01C-2453.03 6799.35 -2471.31 6777.17 -2471.31 6775.22C-2471.43 6771.66 -2475.18 6789.11 -2468.96 6829.04L-2495.68 6698.56L-2494.7 6724.26L-2506.41 6602.9C-2496.1 6628.64 -2486.26 6712.76 -2479.74 6733.72C-2482.3 6689.54 -2518.85 6489.43 -2524.22 6515.78C-2523.92 6549.38 -2513.74 6577.94 -2517.92 6589.53C-2546.84 6452.28 -2513.19 6496.03 -2540.75 6339.51L-2538.54 6350.36C-2530.02 6360.39 -2545.86 6267.85 -2549.27 6288.46C-2554.81 6240.89 -2557.03 6189.02 -2566.1 6145.57C-2563.89 6197.44 -2566.87 6194.14 -2574.88 6217.28C-2602.66 6053.25 -2569.77 6034.63 -2587.32 5898.81C-2607.98 5808.31 -2636.19 5603.73 -2645.94 5478.38C-2626.22 5591.45 -2600.53 5686.77 -2589.02 5724.66C-2623.87 5561.41 -2643.39 5318.25 -2667.16 5217.2C-2678.75 5250.15 -2633.63 5329.1 -2656.04 5387.4C-2664.6 5307.71 -2712.36 4913.88 -2721.57 4904.55C-2706.95 4914.66 -2711.26 4930.51 -2703.84 4939.14C-2703.37 4882.33 -2726.81 4864.05 -2736.65 4779.8C-2715.56 4836.66 -2750.71 4654.18 -2754.33 4557.91C-2735.97 4593.46 -2720.67 4722.89 -2707.85 4772.38C-2711.17 4728.06 -2754.76 4387.41 -2771.03 4248.08C-2786.67 4149.85 -2809.03 4156.49 -2796.3 4251.2C-2817.9 4146.33 -2830.98 4023.32 -2843.33 3959.38C-2846.7 3941.54 -2861.74 3871.75 -2861.74 3871.75C-2844.57 3903.69 -2841.93 3906.51 -2834.94 3951.44C-2842.01 3855.73 -2866.72 3796.18 -2869.62 3736.8C-2863.06 3755.63 -2862.29 3770.96 -2853.77 3786.63C-2878.82 3615.22 -2890.62 3650.2 -2917.89 3509.13C-2914.91 3567.95 -2891.01 3620.08 -2886.7 3701.72L-2901.19 3741.31C-2902.94 3715.35 -2904.72 3666.09 -2915.59 3654.02L-2915.25 3709.97C-2925.22 3659.23 -2938.25 3415.29 -2938.25 3415.29C-2926.5 3444.24 -2891.73 3509.57 -2871.83 3591.56C-2883.81 3515.12 -2889.73 3445.28 -2906.05 3395.58L-2902.25 3447.1C-2925.22 3286.46 -2957.17 3190.58 -2979.2 3048.94C-2975.92 3088.66 -2962.5 3230.81 -2954.36 3287.46C-2977.11 3174.47 -3030.37 2900.67 -3030.37 2900.67L-3024.53 2914.34C-3032.37 2859.39 -3042.21 2771.71 -3056.48 2725.78L-3054.95 2781.6C-3075.53 2657.81 -3129.12 2360.22 -3150.73 2271.37C-3114.72 2325.97 -3091.63 2504.2 -3061.94 2529.02C-3098.83 2344.98 -3153.07 2172.49 -3193.97 2024.99C-3204.75 2000.29 -3208.75 1974.77 -3204.32 2037.28C-3204.32 1991.53 -3245.99 1900.29 -3239.68 1891.22C-3206.07 1989.44 -3168.02 2086.46 -3151.41 2124C-3185.75 1935.75 -3134.58 2131.21 -3174.97 1942.13C-3185.75 1910.83 -3190.26 1946.04 -3209.31 1876.24C-3211.18 1876.46 -3216.98 1911.4 -3195.93 1958.45C-3227.16 1902.89 -3246.76 1807.31 -3254.08 1850.41C-3266.87 1798.89 -3278.2 1754.23 -3284.59 1717.24C-3292.98 1683.86 -3292.6 1662.47 -3294.26 1640.2C-3320.85 1586.81 -3307.34 1643.5 -3309.43 1661.47C-3309.43 1663.68 -3321.61 1633.47 -3353.91 1612.29C-3392.34 1588.59 -3447.81 1571.66 -3447.81 1571.66C-3514.7 1549.13 -3521.22 1541.88 -3596.88 1524.52C-3668.38 1507.98 -3754.95 1504.55 -3824.65 1495.35C-3739.48 1489.06 -3663.3 1498.87 -3566.93 1516.75C-3586.45 1513.5 -3594.67 1518.01 -3594.67 1518.01C-3541.88 1527.6 -3511.38 1529.04 -3459.01 1550.17L-3445.08 1540.58C-3440.44 1543.4 -3433.54 1544.97 -3423.06 1545.18C-3414.58 1545.31 -3405.89 1560.72 -3405.89 1560.72C-3416.07 1562.33 -3472.26 1549.48 -3399.96 1582.64C-3344.15 1611.59 -3334.31 1599.44 -3311.64 1606.73C-3312.71 1599.31 -3346.07 1568.84 -3387.18 1546.27C-3413.73 1545.31 -3518.32 1515.75 -3611.24 1492.4C-3542.35 1504.42 -3442.61 1516.97 -3510.82 1499.82C-3510.82 1499.82 -3566.51 1486.11 -3626.75 1479.99C-3685.67 1471.57 -3747.02 1468.74 -3747.02 1468.74C-3710.04 1464.88 -3539.84 1487.67 -3625.34 1470.74C-3695.17 1463.19 -3774.55 1451.47 -3840.92 1456.89C-3932.48 1463.67 -3798.58 1485.2 -3863.8 1488.58C-3840.12 1488.1 -3998.05 1487.41 -4027.49 1496.18C-4081.73 1491.4 -4060.81 1480.33 -4160.38 1487.67C-4226.54 1496.48 -4170.35 1501.47 -4174.44 1503.95C-4272 1490.75 -4449.11 1542.36 -4541.14 1531.73C-4494.1 1535.24 -4586.64 1545.79 -4636.4 1553.6C-4607.73 1540.36 -4725.19 1542.93 -4717.18 1540.58C-4706.36 1537.5 -4684.54 1531.86 -4636.83 1522.31C-4641.39 1524.65 -4654.29 1528.3 -4657.96 1533.9C-4609.82 1526.91 -4562.1 1514.97 -4555.54 1509.63C-4649.65 1512.58 -4741.17 1514.49 -4776.44 1510.59C-4714.24 1502.08 -4700.01 1504.68 -4658.3 1503.47C-4563.42 1495.09 -4702.06 1495.44 -4670.27 1482.11C-4738.4 1483.85 -4884.49 1507.51 -4871.24 1495.57C-4966.33 1523.65 -4981.29 1545.1 -4930.59 1548.66C-5035.99 1579 -5220.34 1634.56 -5282.38 1653.52C-5368.95 1663.38 -5520.2 1702.7 -5546.65 1699.32C-5496.93 1684.78 -5453.09 1671.88 -5397.96 1655.69C-5481.55 1663.25 -5588.28 1703.92 -5637.57 1723.67C-5668.59 1725.06 -5681.33 1723.54 -5750.26 1741.03C-5731.6 1752.1 -5804.24 1773.63 -5916.08 1807.57C-6115.22 1865.78 -6084.16 1824.59 -6228.63 1881.19L-6193.1 1881.41C-6390.27 1933.97 -6369.14 1926.07 -6582.42 1977.38L-6607.47 1998.38C-6676.28 2005.59 -6729.45 2031.5 -6806.74 2049.78C-6783.05 2037.93 -6780.83 2038.84 -6757.02 2026.99C-6757.02 2026.99 -6841.63 2036.58 -6924.41 2062.19C-6880.19 2041.1 -7328.9 2191.98 -7344.45 2198.75L-7173.57 2152.39C-7204.28 2165.37 -7271.34 2193.02 -7346.88 2220.32C-7419.18 2246.58 -7495.57 2236.77 -7570.77 2212.38C-7645.58 2188.81 -7719.59 2142.23 -7775.23 2070.96C-7829.64 1998.04 -7861.12 1909.97 -7856.56 1808.14C-7851.92 1704.96 -7770.93 1557.6 -7650.91 1492.83C-7636.55 1485.07 -7621.34 1478.9 -7605.45 1473.56L-7581.81 1465.1L-7565.23 1459.76C-7543.03 1452.29 -6865.19 1242.08 -6571.52 1147.24C-6533.55 1128.31 -6497.68 1112.95 -6558.73 1124.71C-6515.32 1108.43 -5779.75 951.605 -5707.45 925.257C-5713.41 931.421 -5762.49 942.49 -5768.63 948.914C-5766.88 954.904 -5537.11 901.775 -5537.11 901.775C-5444.49 893.311 -5608.69 954.774 -5452.75 929.989C-5283.23 890.272 -5402.27 872.432 -5313.48 865.097C-5313.48 865.097 -4791.06 803.547 -4703.38 787.356C-4714.96 789.353 -4737.67 794.432 -4741.17 797.253C-4552.77 781.931 -4480.81 757.797 -4332.33 759.707C-4356.61 763.874 -4387.33 767.259 -4405.14 773.206C-4323.21 763.874 -4265.99 763.613 -4122.46 764.785C-4156.67 773.64 -4206.82 776.027 -4245.29 783.363C-4231.65 786.054 -4128.81 788.094 -4128.81 788.094C-4152.37 790.048 -4174.31 795.777 -4186.28 800.378C-4132.09 794.432 -4067.54 797.904 -4053.4 788.442C-4047 775.29 -4078.79 775.029 -4106.44 773.553C-4071.63 770.211 -3744.94 793.043 -3668.25 797.383C-3596.42 803.894 -3529.95 808.495 -3505.92 818.913C-3615.93 817.871 -3240.28 906.159 -3165.13 932.116C-3100.11 952.43 -3074.8 977.996 -3050.56 997.485C-3026.19 1017.45 -3003.91 1035.29 -2954.23 1066.85C-2945.54 1073.62 -2939.83 1079.48 -2933.06 1085.77C-2891.82 1115.03 -2852.66 1146.15 -2818.45 1181.31C-2797.83 1202.49 -2772.18 1228.97 -2740.82 1286.05C-2722.55 1311.31 -2700.78 1350.33 -2685.57 1386.27C-2690.89 1374.47 -2695.79 1365.57 -2697.07 1367.96C-2695.32 1367.35 -2683.14 1406.93 -2672.74 1442.22C-2667.71 1455.85 -2455.37 2086.89 -2451.2 2135.59L-2410.85 2327.62C-2422.78 2286.82 -2432.66 2274.71 -2443.65 2239.24C-2449.49 2265.38 -2385.29 2508.71 -2399 2438.57C-2367.65 2515.83 -2307.11 2858.61 -2299.18 2984.44L-2296.84 2924.5C-2283.97 3001.11 -2159.95 3736.45 -2167.49 3759.89C-2177.33 3729.24 -2192.07 3638.87 -2184.06 3696.43C-2172.82 3777.6 -2172.22 3923.18 -2156.54 4023.97C-2179.89 3972.36 -2166.81 4000.31 -2179.89 3972.36C-2171.54 4003.83 -2161.31 4070.55 -2144.01 4157.4C-2144.01 4157.4 -2142.05 3903.35 -2152.41 3867.49C-2144.87 3900.05 -2109.89 4156.36 -2073.93 4285.97C-2085.56 4272.64 -2106.35 4275.21 -2098.17 4322.47C-2081.6 4406.16 -2065.37 4594.41 -2048.79 4726.19C-2078.91 4654.18 -2082.66 4644.98 -2102.81 4608.22C-2101.07 4622.32 -2090.08 4687.17 -2090.08 4687.17L-2093.91 4677.75C-2059.74 4940.88 -2024.29 5223.76 -1987.36 5529.16C-1985.91 5534.28 -1986.08 5312.31 -1988.34 5277.45C-1944.33 5443.96 -1967.97 5346.6 -1931.08 5482.59C-1937.93 5459.67 -2000.73 5041.8 -2006.19 4970.31C-1972.53 5124.23 -1885.15 5659.51 -1890 5875.76C-1889.66 6039.23 -1880.93 6055.16 -1875.13 6099.21C-1882.59 6080.2 -1882.33 6070.74 -1886.34 6061.41C-1889.66 6159.46 -1888.98 6214.72 -1881.44 6263.72C-1867.85 6352.71 -1749.02 6330.53 -1755.16 6257.34C-1754.35 5883.23 -1761.21 5940.65 -1761.21 5940.65C-1770.75 5653.26 -1751.24 5439.36 -1742.85 5197.58C-1740.42 5088.03 -1726.79 3883.6 -1726.79 3883.6C-1712.26 4022.54 -1708.08 4010.04 -1701.31 4061.34C-1700.07 3951.83 -1703.52 3491.16 -1703.52 3491.16C-1706.08 3512.65 -1707.83 3555.01 -1709.19 3590.3C-1707.27 3498.5 -1710.25 3299.26 -1697.26 3168.26C-1697.13 3206.46 -1691.12 3409.99 -1683.37 3467.64C-1679.49 3213.93 -1675.19 2810.47 -1682.6 2603.68L-1667.1 2643.49L-1667.9 2453.71L-1651.29 2608.41C-1630.92 2245.54 -1679.49 2539.87 -1657.81 2137.15L-1643.32 2136.63C-1640.08 1980.11 -1660.02 1924.07 -1629.99 1804.23C-1622.15 1651.31 -1678.85 2062.19 -1642.04 1704.61C-1628.03 1637.64 -1600.33 1506.68 -1579.5 1406.93C-1567.1 1315.83 -1596.41 1422.65 -1612.65 1507.03C-1576.22 1283.79 -1541.11 1208.79 -1515.21 1141.72C-1480.4 1070.28 -1463.83 1003.48 -1373.04 773.77C-1376.4 780.542 -1402.77 807.931 -1417.26 834.018C-1354.63 721.9 -1302.95 601.622 -1221.53 485.815C-1221.53 485.815 -1284.16 597.672 -1287.06 605.529C-1265.16 567.765 -1245.26 541.201 -1223.71 513.204C-1196.78 478.089 -1160.95 441.497 -1149.1 428.085L-1171.47 465.197C-1087.11 360.502 -984.438 302.12 -891.474 252.03C-798.212 202.286 -712.063 169.298 -646.068 129.017C-691.613 157.622 -646.751 141.778 -577.646 116.863C-508.455 92.5994 -412.211 66.8596 -361.511 62.2586C-462.698 89.778 -607.767 127.975 -725.059 177.936C-842.52 226.984 -910.389 279.549 -937.06 298.735C-850.615 256.457 -776.61 210.099 -688.503 180.54C-748.405 206.15 -830.676 252.637 -849.464 268.958C-706.866 201.722 -590.385 160.703 -486.94 127.888C-383.453 95.6812 -292.32 70.9832 -196.544 58.2218C-196.544 58.2218 -217.72 60.9564 -249.375 64.8629C-280.903 70.5057 -322.868 77.9715 -364.834 85.394C-448.425 102.67 -530.141 127.237 -530.141 127.237C-447.104 90.4725 -348.899 64.5157 -290.403 53.4905C-93.0995 22.8025 54.4264 10.9142 194 21.6789C157.317 21.896 114.259 30.5721 77.5332 30.8326C263.972 31.1798 380.921 55.7477 469.028 75.0199C557.093 95.551 1095.07 187.528 1000.74 161.181C1117.35 173.335 522.626 63.7778 732.583 92.1219C1094.47 150.894 1157.86 151.024 1598.23 260.537C1400.97 234.798 1703.59 292.094 1527.93 267.482C1740.36 305.94 1750.93 305.463 1850.71 321.045C1850.71 321.045 1981.72 335.934 2402.74 408.856C2260.82 388.021 2621.04 476.092 2458.68 444.188C2587.26 476.092 3101.67 584.824 3489.16 655.489L3452.35 640.861C3960.24 731.623 4593.74 882.372 5116.16 990.497L4934.11 944.53C4989.07 959.895 5287.34 1012.72 5447.11 1058.82C5414.35 1052.09 5357.9 1042.5 5327.69 1034.81C5349.51 1045.1 5617.11 1114.59 5617.11 1114.59C5792.81 1155.48 5642.67 1111.64 5652.98 1113.29C5658.09 1114.12 5682.21 1117.89 5753.44 1132.17C5995.78 1189.3 6600 1340.39 6723.38 1370.65L6680.4 1349.86C7248.11 1481.72 7505.91 1551.69 7918.37 1884.36L7899.75 1872.98C8038.94 2001.21 8099.18 2085.41 8162.28 2143.62C8135.57 2124.87 8088.57 2067.14 8139.27 2128.73C8253.41 2250.27 8336.32 2397.2 8384.38 2536.66C8435.55 2675.39 8519.48 3264.02 8527.36 3447.1C8549.39 3950.7 8408.79 6374.28 8360.52 8236.87C8358.9 8298.9 8379.27 8552.96 8443.35 8692.64C8471.08 8753.19 8475.04 8800.11 8524.04 8847.55L8571.29 8910.62Z" fill="#C7291D"/>
</g>
</svg>
